<?xml version="1.0" encoding="iso-8859-1"?>
<!-- Generator: Adobe Illustrator 23.0.0, SVG Export Plug-In . SVG Version: 6.00 Build 0)  -->
<svg version="1.1" id="Layer_1" xmlns="http://www.w3.org/2000/svg" xmlns:xlink="http://www.w3.org/1999/xlink" x="0px" y="0px"
	 viewBox="0 0 42.24 42.24" style="enable-background:new 0 0 42.24 42.24;" xml:space="preserve">
<g id="about-icon" style="background-color: #ffffff">
	<path d="M21.12,2c10.543,0,19.12,8.577,19.12,19.12s-8.577,19.12-19.12,19.12S2,31.663,2,21.12
	S10.577,2,21.12,2 M21.12,0C9.456,0,0,9.456,0,21.12s9.456,21.12,21.12,21.12s21.12-9.456,21.12-21.12S32.785,0,21.12,0L21.12,0z"/>

	<path class="bian" d="M20.474,16.635c1.223,0,2.167,0.296,2.83,0.887c0.663,0.592,0.994,1.359,0.994,2.304
		c0,0.196-0.022,0.54-0.069,1.033c-0.046,0.494-0.131,0.946-0.255,1.357l-1.266,4.483c-0.104,0.36-0.197,0.772-0.278,1.235
		c-0.084,0.46-0.124,0.812-0.124,1.048c0,0.595,0.133,1.002,0.399,1.218c0.268,0.216,0.73,0.324,1.385,0.324
		c0.308,0,0.658-0.055,1.047-0.162c0.388-0.107,0.671-0.201,0.847-0.284l-0.339,1.386c-1.018,0.402-1.83,0.707-2.436,0.917
		c-0.606,0.211-1.31,0.316-2.112,0.316c-1.232,0-2.19-0.302-2.873-0.901c-0.683-0.602-1.025-1.364-1.025-2.289
		c0-0.358,0.025-0.726,0.076-1.102c0.052-0.376,0.135-0.799,0.248-1.272l1.272-4.501c0.113-0.431,0.209-0.839,0.286-1.225
		c0.078-0.384,0.116-0.737,0.116-1.055c0-0.575-0.119-0.977-0.356-1.203c-0.237-0.225-0.689-0.34-1.36-0.34
		c-0.329,0-0.667,0.053-1.011,0.154c-0.346,0.102-0.642,0.201-0.89,0.293l0.34-1.388c0.833-0.339,1.629-0.63,2.391-0.871
		C19.073,16.756,19.793,16.635,20.474,16.635 M20.474,15.135c-0.831,0-1.711,0.146-2.616,0.433c-0.789,0.25-1.632,0.556-2.503,0.911
		c-0.445,0.181-0.777,0.565-0.891,1.032l-0.34,1.388c-0.132,0.539,0.044,1.107,0.458,1.476c0.279,0.249,0.636,0.381,0.999,0.381
		c0.175,0,0.351-0.031,0.52-0.093c0.222-0.082,0.486-0.17,0.795-0.261c0.209-0.062,0.406-0.093,0.586-0.093
		c0.084,0,0.155,0.002,0.216,0.006c0,0.012,0,0.024,0,0.037c0,0.222-0.029,0.476-0.086,0.756c-0.071,0.354-0.158,0.726-0.267,1.144
		l-1.264,4.474c-0.006,0.02-0.011,0.039-0.015,0.059c-0.126,0.527-0.216,0.99-0.275,1.415c-0.06,0.438-0.091,0.877-0.091,1.307
		c0,1.351,0.53,2.531,1.534,3.415c0.966,0.847,2.265,1.275,3.865,1.275c0.968,0,1.844-0.134,2.605-0.399
		c0.632-0.219,1.471-0.535,2.493-0.939c0.453-0.179,0.791-0.566,0.906-1.039l0.339-1.386c0.137-0.561-0.06-1.151-0.507-1.517
		c-0.273-0.224-0.61-0.339-0.95-0.339c-0.216,0-0.434,0.047-0.637,0.142c-0.015,0.007-0.156,0.071-0.609,0.196
		c-0.323,0.089-0.531,0.108-0.648,0.108c-0.115,0-0.209-0.004-0.284-0.011c0-0.01,0-0.02,0-0.03c0-0.054,0.007-0.271,0.1-0.779
		c0.072-0.413,0.154-0.776,0.244-1.088l1.268-4.49c0.145-0.481,0.25-1.037,0.305-1.627c0.05-0.53,0.075-0.914,0.075-1.171
		c0-1.366-0.517-2.55-1.495-3.423C23.359,15.561,22.071,15.135,20.474,15.135L20.474,15.135z"/>
	<path class="bian" d="M22.511,9.328c0.574,0,1.027,0.175,1.428,0.551c0.378,0.354,0.546,0.728,0.546,1.211
		c0,0.482-0.166,0.852-0.543,1.201c-0.4,0.373-0.855,0.547-1.431,0.547c-0.58,0-1.041-0.176-1.451-0.554
		c-0.377-0.347-0.545-0.716-0.545-1.194c0-0.48,0.17-0.852,0.551-1.207C21.472,9.504,21.932,9.328,22.511,9.328 M22.511,7.828
		c-0.96,0-1.782,0.319-2.467,0.957c-0.686,0.639-1.029,1.408-1.029,2.305c0,0.899,0.344,1.666,1.029,2.298
		c0.687,0.633,1.507,0.95,2.467,0.95c0.957,0,1.775-0.317,2.454-0.95c0.681-0.631,1.02-1.399,1.02-2.298
		c0-0.897-0.338-1.666-1.02-2.305C24.286,8.147,23.468,7.828,22.511,7.828L22.511,7.828z"/>
</g>
</svg>
