<?xml version="1.0" encoding="iso-8859-1"?>
<!-- Generator: Adobe Illustrator 23.0.0, SVG Export Plug-In . SVG Version: 6.00 Build 0)  -->
<svg version="1.1" id="Layer_1" xmlns="http://www.w3.org/2000/svg" xmlns:xlink="http://www.w3.org/1999/xlink" x="0px" y="0px"
	 viewBox="0 0 28.03 28.03" style="enable-background:new 0 0 28.03 28.03;" xml:space="preserve">
	<g id="ins-icon" >
		<path  d="M19.27,0H8.76C3.92,0,0,3.92,0,8.76v10.51c0,4.84,3.92,8.76,8.76,8.76h10.51
		c4.84,0,8.76-3.92,8.76-8.76V8.76C28.03,3.92,24.11,0,19.27,0z M25.4,19.27c0,3.38-2.75,6.13-6.13,6.13H8.76
		c-3.38,0-6.13-2.75-6.13-6.13V8.76c0-3.38,2.75-6.13,6.13-6.13h10.51c3.38,0,6.13,2.75,6.13,6.13C25.4,8.76,25.4,19.27,25.4,19.27z
		 M14.02,7.01c-3.87,0-7.01,3.14-7.01,7.01s3.14,7.01,7.01,7.01s7.01-3.14,7.01-7.01S17.89,7.01,14.02,7.01z M14.02,18.4
		c-2.41,0-4.38-1.97-4.38-4.38c0-2.42,1.97-4.38,4.38-4.38s4.38,1.96,4.38,4.38C18.4,16.43,16.43,18.4,14.02,18.4z M21.55,5.55
		c0.52,0,0.93,0.42,0.93,0.93s-0.42,0.93-0.93,0.93c-0.52,0-0.93-0.42-0.93-0.93S21.03,5.55,21.55,5.55z"/>
	</g>
</svg>
