<?xml version="1.0" encoding="iso-8859-1"?>
<!-- Generator: Adobe Illustrator 23.0.0, SVG Export Plug-In . SVG Version: 6.00 Build 0)  -->
<svg version="1.1" id="Layer_1" xmlns="http://www.w3.org/2000/svg" xmlns:xlink="http://www.w3.org/1999/xlink" x="0px" y="0px"
	 viewBox="0 0 28.44 27.18" style="enable-background:new 0 0 28.44 27.18;" xml:space="preserve">
	<g id="link-icon" >
<path d="M28.44,16.66v10.52h-6.1v-9.81c0-2.46-0.88-4.15-3.09-4.15c-1.68,0-2.69,1.13-3.13,2.23
	c-0.16,0.39-0.2,0.94-0.2,1.49v10.24h-6.1c0,0,0.08-16.62,0-18.34h6.1v2.6c-0.01,0.02-0.03,0.04-0.04,0.06h0.04v-0.06
	c0.81-1.25,2.26-3.03,5.5-3.03C25.43,8.41,28.44,11.03,28.44,16.66z M3.45,0C1.36,0,0,1.37,0,3.17c0,1.76,1.33,3.17,3.37,3.17h0.04
	c2.13,0,3.45-1.41,3.45-3.17C6.82,1.37,5.54,0,3.45,0z M0.36,27.18h6.1V8.84h-6.1C0.36,8.84,0.36,27.18,0.36,27.18z"/>
	</g>
</svg>
