<?xml version="1.0" encoding="iso-8859-1"?>
<!-- Generator: Adobe Illustrator 23.0.0, SVG Export Plug-In . SVG Version: 6.00 Build 0)  -->
<svg version="1.1" id="Capa_1" xmlns="http://www.w3.org/2000/svg" xmlns:xlink="http://www.w3.org/1999/xlink" x="0px" y="0px"
	 viewBox="168 341.533 78 110.933" style="enable-background:new 168 341.533 78 110.933;" xml:space="preserve">
<g>
	<path style="fill:#FFFFFF;" d="M207,341.533c-21.505,0-39,17.495-39,39c0,7.266,2.013,14.356,5.822,20.508l30.958,49.889
		c0.593,0.956,1.638,1.536,2.761,1.536c0.009,0,0.017,0,0.026,0c1.133-0.009,2.18-0.608,2.762-1.58l30.169-50.372
		c3.599-6.022,5.501-12.931,5.501-19.981C246,359.029,228.505,341.533,207,341.533z M234.921,397.177l-27.429,45.796l-28.146-45.357
		c-3.17-5.12-4.89-11.027-4.89-17.083c0-17.921,14.623-32.543,32.543-32.543s32.522,14.623,32.522,32.543
		C239.522,386.41,237.916,392.166,234.921,397.177z"/>
	<path style="fill:#FFFFFF;" d="M207,361.033c-10.752,0-19.5,8.748-19.5,19.5c0,10.684,8.605,19.5,19.5,19.5
		c11.029,0,19.5-8.934,19.5-19.5C226.5,369.781,217.752,361.033,207,361.033z M207,393.577c-7.206,0-13.043-5.857-13.043-13.043
		c0-7.168,5.875-13.043,13.043-13.043s13.022,5.875,13.022,13.043C220.022,387.615,214.32,393.577,207,393.577z"/>
</g>
</svg>
