<?xml version="1.0" encoding="iso-8859-1"?>
<!-- Generator: Adobe Illustrator 23.0.0, SVG Export Plug-In . SVG Version: 6.00 Build 0)  -->
<svg version="1.1" id="Layer_1" xmlns="http://www.w3.org/2000/svg" xmlns:xlink="http://www.w3.org/1999/xlink" x="0px" y="0px"
	 viewBox="0 0 565.962 96.309" style="enable-background:new 0 0 565.962 96.309;" xml:space="preserve">
<g>
	<path style="fill:#FFFFFF;" d="M22.901,0c3.314,0,6.437,0.611,9.366,1.832c2.928,1.222,5.473,2.913,7.628,5.076
		c2.154,2.165,3.869,4.69,5.14,7.575c1.27,2.886,1.907,5.992,1.907,9.321v47.869c0,3.33-0.637,6.439-1.907,9.322
		c-1.271,2.888-2.986,5.41-5.14,7.575c-2.155,2.163-4.7,3.856-7.628,5.076c-2.929,1.222-6.053,1.832-9.366,1.832H5.494H4.161H0V0
		h4.161h1.332H22.901z M41.448,23.803c0-2.55-0.498-4.936-1.497-7.157c-0.999-2.219-2.331-4.161-3.995-5.827
		c-1.665-1.664-3.608-2.967-5.827-3.912c-2.222-0.941-4.607-1.414-7.157-1.414H5.494v84.489h17.478c2.55,0,4.936-0.47,7.157-1.414
		c2.219-0.942,4.161-2.248,5.827-3.913c1.664-1.664,2.996-3.604,3.995-5.825c0.999-2.219,1.497-4.604,1.497-7.159V23.803z"/>
	<g>
		
			<rect x="84.298" y="6.865" transform="matrix(0.9544 -0.2984 0.2984 0.9544 1.7227 30.5921)" style="fill:#FFFFFF;" width="33.485" height="5.58"/>
		<path style="fill:#FFFFFF;" d="M98.128,71.744c2.717-0.998,5.242-1.969,7.574-2.913c2.33-0.941,3.995-1.582,4.994-1.914
			c8.431-3.107,12.651-8.1,12.651-14.982v-0.167c0-2.996-0.583-5.852-1.748-8.573c-1.166-2.718-2.746-5.077-4.744-7.074
			c-1.997-1.998-4.356-3.58-7.074-4.744c-2.721-1.166-5.634-1.748-8.739-1.748c-3.108,0-6.021,0.583-8.739,1.748
			c-2.721,1.164-5.077,2.746-7.075,4.744c-1.997,1.997-3.579,4.356-4.743,7.074c-1.166,2.721-1.748,5.634-1.748,8.739v22.067
			c0,3.108,0.583,6.021,1.748,8.739c1.164,2.721,2.746,5.077,4.743,7.074c1.998,1.998,4.354,3.579,7.075,4.744
			c2.718,1.166,5.631,1.748,8.739,1.748c3.105,0,6.018-0.583,8.739-1.748c2.718-1.166,5.077-2.746,7.074-4.744
			c1.998-1.997,3.579-4.353,4.744-7.074c1.166-2.718,1.748-5.631,1.748-8.739h-5.494c0,2.33-0.445,4.524-1.332,6.575
			c-0.889,2.055-2.08,3.83-3.579,5.327c-1.499,1.499-3.275,2.692-5.327,3.579c-2.054,0.889-4.245,1.332-6.575,1.332
			c-2.331,0-4.524-0.443-6.576-1.332c-2.054-0.887-3.828-2.08-5.326-3.579c-1.499-1.497-2.692-3.272-3.58-5.327
			c-0.521-1.2-0.869-2.456-1.084-3.753c1.421-0.446,3.325-1.138,5.745-2.083C92.772,73.742,95.407,72.743,98.128,71.744z
			 M84.229,51.936c0-2.33,0.441-4.521,1.331-6.576c0.888-2.051,2.081-3.828,3.58-5.326c1.497-1.499,3.272-2.689,5.326-3.579
			c2.052-0.888,4.245-1.332,6.576-1.332c2.33,0,4.521,0.444,6.575,1.332c2.052,0.889,3.828,2.08,5.327,3.579
			c1.499,1.497,2.689,3.246,3.579,5.244c0.887,1.997,1.332,4.161,1.332,6.491c0,2.775-0.999,4.939-2.996,6.493
			c-1.998,1.554-3.995,2.72-5.993,3.495c-0.889,0.333-2.359,0.889-4.411,1.664c-2.055,0.778-4.302,1.611-6.741,2.498
			c-2.442,0.889-4.886,1.805-7.325,2.746c-2.442,0.945-4.495,1.748-6.158,2.414V51.936z"/>
	</g>
	<path style="fill:#FFFFFF;" d="M177.28,90.816c2.33,0,4.521-0.443,6.575-1.332c2.052-0.887,3.828-2.08,5.327-3.579
		c1.499-1.497,2.689-3.272,3.579-5.327c0.887-2.051,1.332-4.245,1.332-6.575h5.494c0,3.108-0.583,6.021-1.748,8.739
		c-1.166,2.721-2.746,5.077-4.744,7.074c-1.997,1.998-4.356,3.579-7.074,4.744c-2.721,1.166-5.634,1.748-8.739,1.748
		c-3.108,0-6.021-0.583-8.739-1.748c-2.721-1.166-5.077-2.746-7.075-4.744c-1.997-1.997-3.579-4.353-4.743-7.074
		c-1.166-2.718-1.748-5.631-1.748-8.739V51.936c0-3.105,0.583-6.018,1.748-8.739c1.164-2.718,2.746-5.077,4.743-7.074
		c1.998-1.998,4.354-3.58,7.075-4.744c2.718-1.166,5.631-1.748,8.739-1.748c3.105,0,6.018,0.583,8.739,1.748
		c2.718,1.164,5.077,2.746,7.074,4.744c1.998,1.997,3.579,4.356,4.744,7.074c1.166,2.721,1.748,5.634,1.748,8.739h-5.494
		c0-2.33-0.445-4.521-1.332-6.576c-0.889-2.051-2.08-3.828-3.579-5.326c-1.499-1.499-3.275-2.689-5.327-3.579
		c-2.054-0.888-4.245-1.332-6.575-1.332c-2.331,0-4.524,0.444-6.576,1.332c-2.054,0.889-3.828,2.08-5.326,3.579
		c-1.499,1.497-2.692,3.275-3.58,5.326c-0.889,2.055-1.331,4.246-1.331,6.576v22.067c0,2.33,0.441,4.524,1.331,6.575
		c0.888,2.055,2.081,3.83,3.58,5.327c1.497,1.499,3.272,2.692,5.326,3.579C172.756,90.373,174.948,90.816,177.28,90.816z"/>
	<path style="fill:#FFFFFF;" d="M253.518,96.309c-3.108,0-6.021-0.583-8.739-1.748c-2.721-1.166-5.077-2.746-7.075-4.744
		c-1.997-1.997-3.579-4.353-4.743-7.074c-1.166-2.718-1.748-5.631-1.748-8.739V51.936c0-3.105,0.583-6.018,1.748-8.739
		c1.164-2.718,2.746-5.077,4.743-7.074c1.998-1.998,4.354-3.58,7.075-4.744c2.718-1.166,5.631-1.748,8.739-1.748
		c3.105,0,6.018,0.583,8.739,1.748c2.718,1.164,5.077,2.746,7.074,4.744c1.998,1.997,3.579,4.356,4.744,7.074
		c1.166,2.721,1.748,5.634,1.748,8.739v22.067c0,3.108-0.583,6.021-1.748,8.739c-1.166,2.721-2.746,5.077-4.744,7.074
		c-1.997,1.998-4.356,3.579-7.074,4.744C259.536,95.726,256.624,96.309,253.518,96.309z M253.518,35.123
		c-2.331,0-4.524,0.444-6.576,1.332c-2.054,0.889-3.828,2.08-5.326,3.579c-1.499,1.497-2.692,3.275-3.58,5.326
		c-0.889,2.055-1.331,4.246-1.331,6.576v22.067c0,2.33,0.441,4.524,1.331,6.575c0.888,2.055,2.081,3.83,3.58,5.327
		c1.497,1.499,3.272,2.692,5.326,3.579c2.052,0.889,4.245,1.332,6.576,1.332c2.33,0,4.521-0.443,6.575-1.332
		c2.052-0.887,3.828-2.08,5.327-3.579c1.499-1.497,2.689-3.272,3.579-5.327c0.887-2.051,1.332-4.245,1.332-6.575V51.936
		c0-2.33-0.445-4.521-1.332-6.576c-0.889-2.051-2.08-3.828-3.579-5.326c-1.499-1.499-3.275-2.689-5.327-3.579
		C258.039,35.567,255.848,35.123,253.518,35.123z"/>
	<path style="fill:#FFFFFF;" d="M316.571,36.915c1.312-1.413,3.48-3.139,6.63-4.798c4.087-2.153,7.882-2.465,9.888-2.486h6.991
		v5.494h-6.491c-2.331,0-4.495,0.444-6.493,1.332c-1.997,0.889-3.774,2.08-5.327,3.579c-1.556,1.497-2.775,3.275-3.662,5.326
		c-0.889,2.055-1.332,4.246-1.332,6.576v19.475v24.066h-5.492V71.411V51.936v-2.484c0-2.373,0.521-4.882,1.845-7.656
		C314.256,39.43,315.291,38.293,316.571,36.915z"/>
	<linearGradient id="SVGID_1_" gradientUnits="userSpaceOnUse" x1="304.6994" y1="11.0887" x2="574.4018" y2="156.2602">
		<stop  offset="0" style="stop-color:#846D3C"/>
		<stop  offset="0.0377" style="stop-color:#87703F"/>
		<stop  offset="0.0744" style="stop-color:#927A46"/>
		<stop  offset="0.1106" style="stop-color:#A58B55"/>
		<stop  offset="0.1465" style="stop-color:#C2A66B"/>
		<stop  offset="0.1819" style="stop-color:#EDCF8B"/>
		<stop  offset="0.1892" style="stop-color:#FBDB94"/>
		<stop  offset="0.2394" style="stop-color:#D9BC7C"/>
		<stop  offset="0.3454" style="stop-color:#A78D57"/>
		<stop  offset="0.4277" style="stop-color:#8D7543"/>
		<stop  offset="0.4757" style="stop-color:#846D3C"/>
		<stop  offset="0.5249" style="stop-color:#897240"/>
		<stop  offset="0.5911" style="stop-color:#99804C"/>
		<stop  offset="0.6671" style="stop-color:#B69A62"/>
		<stop  offset="0.7497" style="stop-color:#E3C583"/>
		<stop  offset="0.7784" style="stop-color:#FBDB94"/>
		<stop  offset="0.8366" style="stop-color:#C9AD71"/>
		<stop  offset="0.9073" style="stop-color:#A18852"/>
		<stop  offset="0.9643" style="stop-color:#8B7442"/>
		<stop  offset="1" style="stop-color:#846D3C"/>
	</linearGradient>
	<path style="fill:url(#SVGID_1_);" d="M411.156,89.983v5.494h-35.622h-5.494V0h5.494v89.983H411.156z"/>
	<linearGradient id="SVGID_2_" gradientUnits="userSpaceOnUse" x1="326.2235" y1="-28.8991" x2="595.9258" y2="116.2723">
		<stop  offset="0" style="stop-color:#846D3C"/>
		<stop  offset="0.0377" style="stop-color:#87703F"/>
		<stop  offset="0.0744" style="stop-color:#927A46"/>
		<stop  offset="0.1106" style="stop-color:#A58B55"/>
		<stop  offset="0.1465" style="stop-color:#C2A66B"/>
		<stop  offset="0.1819" style="stop-color:#EDCF8B"/>
		<stop  offset="0.1892" style="stop-color:#FBDB94"/>
		<stop  offset="0.2394" style="stop-color:#D9BC7C"/>
		<stop  offset="0.3454" style="stop-color:#A78D57"/>
		<stop  offset="0.4277" style="stop-color:#8D7543"/>
		<stop  offset="0.4757" style="stop-color:#846D3C"/>
		<stop  offset="0.5249" style="stop-color:#897240"/>
		<stop  offset="0.5911" style="stop-color:#99804C"/>
		<stop  offset="0.6671" style="stop-color:#B69A62"/>
		<stop  offset="0.7497" style="stop-color:#E3C583"/>
		<stop  offset="0.7784" style="stop-color:#FBDB94"/>
		<stop  offset="0.8366" style="stop-color:#C9AD71"/>
		<stop  offset="0.9073" style="stop-color:#A18852"/>
		<stop  offset="0.9643" style="stop-color:#8B7442"/>
		<stop  offset="1" style="stop-color:#846D3C"/>
	</linearGradient>
	<path style="fill:url(#SVGID_2_);" d="M484.231,0v47.941v2.829v21.235c0,3.33-0.64,6.466-1.915,9.405
		c-1.277,2.942-2.996,5.494-5.159,7.657c-2.165,2.165-4.69,3.887-7.575,5.161c-2.886,1.275-5.992,1.915-9.322,1.915
		c-3.329,0-6.465-0.64-9.404-1.915c-2.942-1.274-5.494-2.996-7.658-5.161c-2.163-2.163-3.885-4.715-5.159-7.657
		c-1.278-2.939-1.915-6.075-1.915-9.405V50.77v-2.829V0h5.494v47.941v2.829v21.235c0,2.555,0.5,4.968,1.497,7.242
		c0.999,2.276,2.331,4.245,3.995,5.908c1.665,1.665,3.634,2.997,5.91,3.995c2.273,0.999,4.687,1.499,7.241,1.499
		c2.552,0,4.937-0.5,7.159-1.499c2.219-0.998,4.161-2.33,5.825-3.995c1.665-1.664,2.997-3.633,3.995-5.908
		c0.999-2.274,1.499-4.687,1.499-7.242V50.77v-2.829V0H484.231z"/>
	<linearGradient id="SVGID_3_" gradientUnits="userSpaceOnUse" x1="342.4296" y1="-59.0071" x2="612.132" y2="86.1644">
		<stop  offset="0" style="stop-color:#846D3C"/>
		<stop  offset="0.0377" style="stop-color:#87703F"/>
		<stop  offset="0.0744" style="stop-color:#927A46"/>
		<stop  offset="0.1106" style="stop-color:#A58B55"/>
		<stop  offset="0.1465" style="stop-color:#C2A66B"/>
		<stop  offset="0.1819" style="stop-color:#EDCF8B"/>
		<stop  offset="0.1892" style="stop-color:#FBDB94"/>
		<stop  offset="0.2394" style="stop-color:#D9BC7C"/>
		<stop  offset="0.3454" style="stop-color:#A78D57"/>
		<stop  offset="0.4277" style="stop-color:#8D7543"/>
		<stop  offset="0.4757" style="stop-color:#846D3C"/>
		<stop  offset="0.5249" style="stop-color:#897240"/>
		<stop  offset="0.5911" style="stop-color:#99804C"/>
		<stop  offset="0.6671" style="stop-color:#B69A62"/>
		<stop  offset="0.7497" style="stop-color:#E3C583"/>
		<stop  offset="0.7784" style="stop-color:#FBDB94"/>
		<stop  offset="0.8366" style="stop-color:#C9AD71"/>
		<stop  offset="0.9073" style="stop-color:#A18852"/>
		<stop  offset="0.9643" style="stop-color:#8B7442"/>
		<stop  offset="1" style="stop-color:#846D3C"/>
	</linearGradient>
	<path style="fill:url(#SVGID_3_);" d="M537.831,47.405L516.191,0h5.827l18.809,39.748L559.637,0h5.992l-21.805,47.405
		l22.138,48.071h-5.992l-19.144-40.414l-18.976,40.414h-5.993L537.831,47.405z"/>
</g>
<g>
</g>
<g>
</g>
<g>
</g>
<g>
</g>
<g>
</g>
<g>
</g>
</svg>
