<?xml version="1.0" encoding="iso-8859-1"?>
<!-- Generator: Adobe Illustrator 24.2.0, SVG Export Plug-In . SVG Version: 6.00 Build 0)  -->
<svg version="1.1" id="Layer_1" xmlns="http://www.w3.org/2000/svg" xmlns:xlink="http://www.w3.org/1999/xlink" x="0px" y="0px"
	 viewBox="0 0 19 49.596" style="enable-background:new 0 0 19 49.596;" xml:space="preserve">
<g id="Group_31" transform="translate(-714 -949)">
	<g id="Rectangle_41" transform="translate(714 949)">
		<path style="fill:none;" d="M9.5,0L9.5,0C14.747,0,19,4.253,19,9.5v11c0,5.247-4.253,9.5-9.5,9.5l0,0C4.253,30,0,25.747,0,20.5
			v-11C0,4.253,4.253,0,9.5,0z"/>
		<path style="fill:#FFFFFF;" d="M9.5,30C4.262,30,0,25.738,0,20.5v-11C0,4.262,4.262,0,9.5,0S19,4.262,19,9.5v11
			C19,25.738,14.738,30,9.5,30z M9.5,1C4.813,1,1,4.813,1,9.5v11C1,25.187,4.813,29,9.5,29s8.5-3.813,8.5-8.5v-11
			C18,4.813,14.187,1,9.5,1z"/>
	</g>
	<path style="fill:#FFFFFF;" d="M723.5,960.728c-0.276,0-0.5-0.224-0.5-0.5V955.5c0-0.276,0.224-0.5,0.5-0.5s0.5,0.224,0.5,0.5
		v4.728C724,960.504,723.776,960.728,723.5,960.728z"/>
	<path style="fill:#FFFFFF;" d="M723.594,992.596l-3.447-3.447c-0.195-0.195-0.195-0.512,0-0.707s0.512-0.195,0.707,0l2.74,2.74
		l2.741-2.74c0.195-0.195,0.512-0.195,0.707,0s0.195,0.512,0,0.707L723.594,992.596z"/>
	<path style="fill:#FFFFFF;" d="M723.594,998.596l-3.447-3.447c-0.195-0.195-0.195-0.512,0-0.707s0.512-0.195,0.707,0l2.74,2.74
		l2.741-2.74c0.195-0.195,0.512-0.195,0.707,0s0.195,0.512,0,0.707L723.594,998.596z"/>
</g>
<g>
</g>
<g>
</g>
<g>
</g>
<g>
</g>
<g>
</g>
<g>
</g>
</svg>
