<?xml version="1.0" encoding="iso-8859-1"?>
<!-- Generator: Adobe Illustrator 23.0.0, SVG Export Plug-In . SVG Version: 6.00 Build 0)  -->
<svg version="1.1" id="Layer_1" xmlns="http://www.w3.org/2000/svg" xmlns:xlink="http://www.w3.org/1999/xlink" x="0px" y="0px"
	 viewBox="0 0 42.24 42.24" style="enable-background:new 0 0 42.24 42.24;" xml:space="preserve">

<g id="phone-icon">
		<path d="M21.12,2c10.543,0,19.12,8.577,19.12,19.12s-8.577,19.12-19.12,19.12S2,31.663,2,21.12
	S10.577,2,21.12,2 M21.12,0C9.456,0,0,9.456,0,21.12s9.456,21.12,21.12,21.12s21.12-9.456,21.12-21.12S32.785,0,21.12,0L21.12,0z"/>
		<path class="bian" d="M32.958,27.05l-3.103-3.103c-0.855-0.855-2.247-0.855-3.103,0l-1.41,1.41
			c-0.648,0.648-1.703,0.648-2.35,0l-6.113-6.118c-0.65-0.65-0.65-1.701,0-2.351l1.41-1.41c0.852-0.852,0.864-2.239-0.001-3.104
			l-3.102-3.092c-0.855-0.855-2.247-0.855-3.1-0.002c-0.638,0.633-0.844,0.837-1.131,1.121c-3.085,3.085-3.085,8.104,0,11.189
			l9.686,9.691c3.092,3.092,8.097,3.093,11.189,0l1.128-1.128C33.814,29.297,33.814,27.905,32.958,27.05L32.958,27.05z
			 M13.117,10.316c0.285-0.285,0.749-0.285,1.035,0.001l3.102,3.092c0.286,0.286,0.286,0.748,0,1.034l-0.517,0.517l-4.134-4.134
			L13.117,10.316z M21.675,30.247l-9.686-9.691c-2.387-2.387-2.518-6.134-0.403-8.678L15.708,16
			c-1.083,1.228-1.038,3.099,0.136,4.273l6.113,6.118l0,0c1.173,1.173,3.044,1.221,4.273,0.136l4.123,4.123
			C27.817,32.761,24.078,32.65,21.675,30.247L21.675,30.247z M31.924,29.118l-0.517,0.517l-4.137-4.137l0.517-0.517
			c0.285-0.285,0.749-0.285,1.034,0l3.103,3.103C32.209,28.369,32.209,28.833,31.924,29.118L31.924,29.118z M31.924,29.118"/>
</g>
</svg>
